<svg xmlns="http://www.w3.org/2000/svg" version="1.1" width="1024px" height="1024px" style="shape-rendering:geometricPrecision; text-rendering:geometricPrecision; image-rendering:optimizeQuality; fill-rule:evenodd; clip-rule:evenodd" xmlns:xlink="http://www.w3.org/1999/xlink">
<g></g>
<g><path style="opacity: 1;" fill="#fefefe" d="M 388.5,237.5 C 448.834,237.333 509.168,237.5 569.5,238C 572.428,241.257 573.262,245.091 572,249.5C 565.157,268.034 557.157,286.034 548,303.5C 537.584,317.128 523.75,324.628 506.5,326C 473.5,326.333 440.5,326.667 407.5,327C 391.117,328.724 379.95,337.224 374,352.5C 367.353,372.404 363.02,392.738 361,413.5C 361.903,414.701 363.069,415.535 364.5,416C 407.559,416.016 450.559,416.683 493.5,418C 496.097,420.317 496.93,423.15 496,426.5C 489.629,443.286 482.295,459.62 474,475.5C 462.884,489.476 448.384,497.31 430.5,499C 407.5,499.333 384.5,499.667 361.5,500C 346.878,499.958 338.378,507.125 336,521.5C 329.626,549.662 322.626,577.662 315,605.5C 301.054,637.24 277.22,657.407 243.5,666C 235.265,668.249 226.932,669.582 218.5,670C 214.061,667.024 212.561,662.857 214,657.5C 235.809,552.597 257.143,447.597 278,342.5C 282.577,324.347 288.577,306.68 296,289.5C 311.294,268.248 331.461,253.414 356.5,245C 367.104,241.65 377.771,239.15 388.5,237.5 Z" data-index="1"></path></g>
<g><path style="opacity: 1;" fill="#fefefe" d="M 665.5,237.5 C 714.501,237.333 763.501,237.5 812.5,238C 815.394,240.909 816.227,244.409 815,248.5C 808.648,267.892 801.314,286.892 793,305.5C 783.148,318.511 769.982,325.344 753.5,326C 730.167,326.333 706.833,326.667 683.5,327C 661.896,328.6 649.062,340.1 645,361.5C 640.218,378.282 636.884,395.282 635,412.5C 635.374,413.416 635.874,414.25 636.5,415C 676.749,416.322 717.083,416.989 757.5,417C 762.568,419.983 763.735,424.149 761,429.5C 755.2,446.245 747.867,462.245 739,477.5C 728.405,490.049 714.905,497.215 698.5,499C 676.167,499.333 653.833,499.667 631.5,500C 623.988,500.007 617.821,502.841 613,508.5C 608.259,519.128 604.592,530.128 602,541.5C 589.826,591.194 577.493,640.861 565,690.5C 553.812,743.022 521.978,774.855 469.5,786C 465.5,786.667 461.5,786.667 457.5,786C 453.139,783.774 451.639,780.274 453,775.5C 484.979,643.583 516.646,511.583 548,379.5C 554.206,352.003 562.872,325.336 574,299.5C 594.284,263.773 624.784,243.107 665.5,237.5 Z" data-index="2"></path></g>
</svg>